<svg xmlns="http://www.w3.org/2000/svg" width="100" height="100" viewBox="0 0 16 16"><g><path d="m5.3009374 1.8040626c-3.8007467 0-5.06281241 4.9177307-5.06281241 7.5434374 0 2.6112 1.03020071 3.568437 3.17718751 3.568437 1.3201067 0 3.3655217-0.754232 4.134375-2.698125l-0.3337501-0.145c-0.6673065 0.899413-1.6972299 1.450625-2.8287499 1.450625-1.3926401 0-1.7409374-0.928511-1.7409376-2.2631245 0-2.9593602 1.4217667-6.7746875 3.0175002-6.7746875 0.6527998 0 0.8849998 0.4207867 0.885 0.885 0 0.5512532-0.3193402 1.1606075-0.6675002 1.3346875C6.1568766 5.0244592 6.4760182 5.0825 6.708125 5.0825c0.2872515 0 0.5038558-0.086278 0.6621875-0.235625-0.080472 0.2391332-0.1240626 0.4831773-0.1240626 0.72875 0 1.04448 0.5512275 1.4071875 1.5521875 1.4071875-0.014507-0.13056-0.2031249-0.2467224-0.2031249-0.9865626 0-2.2050133 1.4074195-3.5249998 3.7574995-3.525 1.276588 0 1.798751 0.8993192 1.798751 1.9728127 0 1.5522132-1.073578 3.4526966-2.538751 3.5687499l1.03-4.8453125-2.146875 0.2903125-1.9731245 9.2262505h2.0890625l0.885-4.1343755h0.0725c2.6112 0 4.1925-2.0454657 4.1925-3.8878125 0-1.4941867-1.044656-2.8578124-3.42375-2.8578124-1.828958 0-3.7977012 1.0501832-4.653125 2.395 0.02578-0.1395922 0.03875-0.2906221 0.03875-0.4512501 0-1.4071467-1.0591859-1.9437499-2.4228126-1.9437499z"/></g></svg>